<svg width="400" height="301" viewBox="0 0 400 301" fill="none" xmlns="http://www.w3.org/2000/svg">
<path d="M343.775 172.346C329.789 172.425 317.679 175.783 307.522 180.785C303.771 173.362 300.021 166.876 299.397 162.033C298.693 156.408 297.834 152.969 298.693 146.25C299.552 139.53 303.459 129.998 303.459 129.217C303.38 128.514 302.598 125.076 294.552 124.998C286.505 124.92 279.55 126.56 278.769 128.67C277.988 130.78 276.425 135.624 275.409 140.624C274.003 147.969 259.314 173.986 250.954 187.659C248.22 182.347 245.876 177.659 245.406 173.908C244.704 168.283 243.843 164.844 244.704 158.126C245.563 151.406 249.47 141.874 249.47 141.093C249.391 140.39 248.61 136.952 240.563 136.874C232.515 136.796 225.562 138.436 224.781 140.546C223.999 142.656 223.14 147.656 221.421 152.5C219.78 157.344 200.247 200.786 195.168 212.115C192.59 217.897 190.325 222.506 188.683 225.632C187.042 228.757 188.605 225.866 188.449 226.178C187.042 228.835 186.261 230.319 186.261 230.319V230.398C185.167 232.352 183.995 234.226 183.447 234.226C183.057 234.226 182.275 228.991 183.604 221.804C186.495 206.724 193.526 183.207 193.449 182.347C193.449 181.957 194.777 177.815 188.917 175.706C183.213 173.597 181.182 177.112 180.713 177.112C180.244 177.112 179.853 178.363 179.853 178.363C179.853 178.363 186.182 151.877 167.743 151.877C156.179 151.877 140.241 164.456 132.349 175.941C127.349 178.676 116.723 184.457 105.472 190.63C101.175 192.974 96.7211 195.474 92.502 197.74L91.6433 196.801C69.2976 172.971 27.9659 156.094 29.6848 124.06C30.3099 112.419 34.3727 81.7127 109.068 44.522C170.245 14.0506 219.233 22.4107 227.749 41.0061C239.859 67.5709 201.575 116.95 137.976 124.06C113.755 126.795 101.019 117.419 97.8165 113.903C94.4569 110.231 93.9881 110.075 92.738 110.778C90.7065 111.872 91.9566 115.153 92.738 117.106C94.6131 122.029 102.426 130.78 115.709 135.155C127.35 138.983 155.79 141.093 190.168 127.811C228.687 112.887 258.768 71.4775 249.939 36.8651C240.954 1.62763 182.511 -9.93588 127.272 9.6752C94.378 21.395 58.7498 39.6778 33.1226 63.6643C2.65119 92.1043 -2.19298 116.95 -0.161555 127.264C6.94922 164.064 57.656 188.05 77.9703 205.786C76.9546 206.332 76.017 206.879 75.1575 207.349C65.0004 212.348 26.3251 232.585 16.6368 253.993C5.69833 278.214 18.3557 295.638 26.7939 297.982C52.89 305.248 79.611 292.2 94.0654 270.714C108.441 249.227 106.723 221.334 100.082 208.599L99.8464 208.13L107.816 203.442C112.973 200.395 118.052 197.582 122.505 195.159C120.005 201.957 118.207 210.004 117.271 221.724C116.177 235.476 121.802 253.289 129.225 260.321C132.506 263.368 136.413 263.447 138.835 263.447C147.429 263.447 151.336 256.336 155.633 247.82C160.946 237.429 165.634 225.396 165.634 225.396C165.634 225.396 159.774 257.977 175.791 257.977C181.651 257.977 187.511 250.399 190.168 246.492V246.57C190.168 246.57 190.324 246.336 190.636 245.789C190.964 245.304 191.277 244.809 191.574 244.305V244.149C193.918 240.086 199.153 230.788 206.966 215.396C217.044 195.551 226.733 170.705 226.733 170.705C226.733 170.705 227.671 176.799 230.562 186.8C232.28 192.739 236.03 199.223 238.921 205.552C236.577 208.833 235.171 210.709 235.171 210.709L235.249 210.787C233.374 213.288 231.264 215.945 229.077 218.6C221.108 228.133 211.576 238.994 210.326 242.119C208.841 245.79 209.154 248.525 212.044 250.713C214.154 252.276 217.904 252.588 221.889 252.276C229.077 251.807 234.078 250.01 236.578 248.916C240.484 247.509 244.938 245.4 249.235 242.274C257.048 236.493 261.814 228.29 261.346 217.351C261.111 211.335 259.158 205.397 256.736 199.771C257.439 198.756 258.143 197.739 258.845 196.646C271.19 178.597 280.722 158.752 280.722 158.752C280.722 158.752 281.66 164.847 284.551 174.847C286.035 179.926 289.004 185.474 291.661 190.943C280.097 200.397 272.831 211.336 270.331 218.524C265.721 231.806 269.315 237.822 276.113 239.229C279.159 239.854 283.535 238.448 286.816 237.041C290.879 235.713 295.801 233.446 300.333 230.087C308.147 224.306 315.647 216.258 315.257 205.398C315.022 200.397 313.694 195.475 311.897 190.787C321.742 186.724 334.476 184.38 350.65 186.334C385.419 190.396 392.295 212.117 390.967 221.18C389.639 230.244 382.373 235.244 379.95 236.807C377.528 238.291 376.746 238.839 376.981 239.932C377.293 241.574 378.387 241.495 380.497 241.183C383.388 240.713 398.78 233.76 399.405 217.041C400.342 195.552 379.95 172.112 343.775 172.346V172.346ZM75.6263 262.744C64.1409 275.323 47.9677 280.089 41.092 276.027C33.6695 271.729 36.5596 253.212 50.7023 239.852C59.2968 231.726 70.4696 224.225 77.814 219.615C79.4548 218.6 81.955 217.116 84.924 215.318C85.3928 215.006 85.7053 214.849 85.7053 214.849C86.2522 214.537 86.8773 214.146 87.5023 213.756C92.7372 232.82 87.7367 249.54 75.6263 262.744V262.744ZM159.618 205.63C155.633 215.396 147.195 240.477 142.116 239.07C137.74 237.898 135.085 218.912 141.256 200.161C144.382 190.706 151.023 179.456 154.929 175.079C161.259 168.048 168.134 165.704 169.853 168.595C171.885 172.346 162.118 199.536 159.618 205.63ZM228.921 238.758C227.202 239.618 225.639 240.242 224.936 239.774C224.389 239.462 225.639 238.29 225.639 238.29C225.639 238.29 234.311 228.992 237.749 224.695C239.702 222.195 242.046 219.304 244.547 216.022V216.96C244.547 228.21 233.765 235.711 228.921 238.758ZM282.362 226.569C281.112 225.632 281.269 222.741 285.488 213.677C287.129 210.083 290.879 204.067 297.364 198.364C298.145 200.708 298.615 202.973 298.536 205.083C298.458 219.147 288.457 224.381 282.362 226.569Z" fill="#CF649A"/>
</svg>
